# xmcd
#
# Track frame offsets: 
#        150
#        11734
#        25197
#        44367
#        64922
#        79700
#        92190
#        108500
#        122690
#        134597
#        148147
#        159455
#
# Disc length: 2247 seconds
#
# Revision: 0
# Processed by: cddbd v1.5.2PL0 Copyright (c) Steve Scherf et al.
# Submitted via: ExactAudioCopy v0.95b4
#
DISCID=a608c50c
DTITLE=Various Artist - Greetings From Texas
DYEAR=2005
DGENRE=Country
TTITLE0=On The Road Again - Willie Nelson
TTITLE1=Wrong - Wayon Jennings
TTITLE2=Me and Bobby McGee - Kris Kristofferson
TTITLE3=The Road Goes On Forever - Joe Ely
TTITLE4=I Couldn't Leave You If I Tried - Rodney Crowell
TTITLE5=Honky Tonk Crowd - Rick Trevino
TTITLE6=I Wanna Thank You Baby - Delbert McClinton
TTITLE7=Look At Little Sister - Stevie Ray Vaughn and Double Trouble
TTITLE8=You Can't Get The Hell Out Of Texas - George Jones
TTITLE9=Don't The Girls All Get Prettier At Closing Time - Mickey Gill
TTITLE9=ey
TTITLE10=Blue Bayou - Roy Orbison
TTITLE11=Maybe Baby - Buddy Holly
EXTD=
EXTT0=
EXTT1=
EXTT2=
EXTT3=
EXTT4=
EXTT5=
EXTT6=
EXTT7=
EXTT8=
EXTT9=
EXTT10=
EXTT11=
PLAYORDER=
